<svg xmlns="http://www.w3.org/2000/svg" viewBox="0 0 345.2 365.54"><defs><style>.cls-1{fill:#fff;}</style></defs><title>tribalyte-tech-blanco</title><g id="Layer_2" data-name="Layer 2"><g id="BACKGROUND_1" data-name="BACKGROUND 1"><path class="cls-1" d="M212.15,39.29V74H177.42V39.29Zm4.56,34.48h34.73V39.29H216.71Zm34.73-39.29V0H216.71V34.73h34.73ZM133.31,39.29H98.83V74h34.73V39.29ZM172.6,73.77V39.29H138.12V74H172.6Zm39.55-39.29V0H177.42V34.73h34.73ZM133.31,78.59H98.83v34.73h34.73V78.59ZM98.83,117.88v34.73h34.73V117.88ZM94,0H59.54V34.73H94.27V0Zm83.41,157.17V191.9h34.73V157.17Zm39.29,34.73h34.73V157.17H216.71Zm-78.59-34.73V191.9h34.73V157.17Zm78.59-4.56h34.73V117.88H216.71ZM172.6,34.48V0H138.12V34.73H172.6ZM98.83,157.17V191.9h34.73V157.17ZM216.71,78.59v34.73h34.73V78.59Zm-83.4-44.11V0H98.83V34.73h34.48ZM94,39.29H59.54V74H94.27V39.29ZM59.54,157.17V191.9H94.27V157.17Zm117.88,39.3V231.2h34.73V196.47Zm39.29,34.73h34.73V196.47H216.71Zm-78.59-34.73V231.2h34.73V196.47Zm-39.29,0V231.2h34.73V196.47Zm-39.29,0V231.2H94.27V196.47ZM256,73.77h34.73V39.29H256Zm34.73-39.29V0H256V34.73h34.73ZM256,191.9h34.73V157.17H256Zm0-39.29h34.73V117.88H256Zm0-74v34.73h34.73V78.59Zm0,152.61h34.73V196.47H256ZM94,117.88H59.54v34.73H94.27V117.88Zm0-39.29H59.54v34.73H94.27V78.59Z"/><path class="cls-1" d="M17.8,347.84v-2.2H33.3v2.2H26.8V365H24.2v-17.2Z"/><path class="cls-1" d="M59.7,345.64v2.2H48.9V354H59v2.2H48.9v6.7H59.8v2.2H46.3v-19.5Z"/><path class="cls-1" d="M85.4,348.34a6,6,0,0,0-3.5-1,5.79,5.79,0,0,0-3,.7,4.94,4.94,0,0,0-2,1.8,9.65,9.65,0,0,0-1.2,2.5,9.25,9.25,0,0,0-.4,2.9,10.55,10.55,0,0,0,.4,3.1,7.74,7.74,0,0,0,1.2,2.6,7,7,0,0,0,2,1.8,6.64,6.64,0,0,0,3,.7,5.56,5.56,0,0,0,2.3-.4,5.23,5.23,0,0,0,1.7-1.2A4.18,4.18,0,0,0,87,360a7.85,7.85,0,0,0,.5-2.2h2.6a9.4,9.4,0,0,1-2.5,5.7,8,8,0,0,1-5.9,2,9.35,9.35,0,0,1-3.9-.8,7.39,7.39,0,0,1-2.8-2.1,10.86,10.86,0,0,1-1.7-3.2,12.9,12.9,0,0,1-.6-4,13.36,13.36,0,0,1,.6-4,9.16,9.16,0,0,1,1.8-3.2A8,8,0,0,1,78,346a10.19,10.19,0,0,1,4-.8,9.25,9.25,0,0,1,2.9.4,9,9,0,0,1,2.4,1.2,7,7,0,0,1,1.8,2,6.18,6.18,0,0,1,.9,2.7H87.4A5.09,5.09,0,0,0,85.4,348.34Z"/><path class="cls-1" d="M106.8,345.64v8.3H117v-8.3h2.6V365H117v-8.9H106.8V365h-2.6v-19.4Z"/><path class="cls-1" d="M137.4,345.64l10.2,15.7h.1v-15.7h2.4V365h-2.8l-10.1-15.6h-.1V365h-2.4v-19.4Z"/><path class="cls-1" d="M164.6,351.54a9.16,9.16,0,0,1,1.8-3.2,9.53,9.53,0,0,1,2.9-2.3,8.68,8.68,0,0,1,4-.8,9.83,9.83,0,0,1,4,.8,8.23,8.23,0,0,1,2.9,2.3,9.16,9.16,0,0,1,1.8,3.2,12.33,12.33,0,0,1,0,7.6,9.16,9.16,0,0,1-1.8,3.2,8,8,0,0,1-2.9,2.2,10.19,10.19,0,0,1-4,.8,9.83,9.83,0,0,1-4-.8,9.27,9.27,0,0,1-2.9-2.2,9.16,9.16,0,0,1-1.8-3.2,12.33,12.33,0,0,1,0-7.6Zm2.4,6.7a12.27,12.27,0,0,0,1.2,2.6,4.63,4.63,0,0,0,2.1,1.8,5.79,5.79,0,0,0,3,.7,5.56,5.56,0,0,0,3-.7,7.41,7.41,0,0,0,2.1-1.8,10.34,10.34,0,0,0,1.2-2.6,10.71,10.71,0,0,0,0-5.8,10.34,10.34,0,0,0-1.2-2.6,4.63,4.63,0,0,0-2.1-1.8,6,6,0,0,0-3-.7,5.56,5.56,0,0,0-3,.7,7.41,7.41,0,0,0-2.1,1.8,10.34,10.34,0,0,0-1.2,2.6,10.71,10.71,0,0,0,0,5.8Z"/><path class="cls-1" d="M199.2,345.64v17.2h10.3V365H196.7v-19.4Z"/><path class="cls-1" d="M222,351.54a9.16,9.16,0,0,1,1.8-3.2,9.53,9.53,0,0,1,2.9-2.3,8.68,8.68,0,0,1,4-.8,9.83,9.83,0,0,1,4,.8,8.23,8.23,0,0,1,2.9,2.3,9.16,9.16,0,0,1,1.8,3.2,12.33,12.33,0,0,1,0,7.6,9.16,9.16,0,0,1-1.8,3.2,8,8,0,0,1-2.9,2.2,10.19,10.19,0,0,1-4,.8,9.83,9.83,0,0,1-4-.8,9.27,9.27,0,0,1-2.9-2.2,9.16,9.16,0,0,1-1.8-3.2,12.09,12.09,0,0,1-.6-3.8A23.18,23.18,0,0,1,222,351.54Zm2.4,6.7a12.27,12.27,0,0,0,1.2,2.6,4.63,4.63,0,0,0,2.1,1.8,5.79,5.79,0,0,0,3,.7,5.56,5.56,0,0,0,3-.7,7.41,7.41,0,0,0,2.1-1.8,10.34,10.34,0,0,0,1.2-2.6,10.71,10.71,0,0,0,0-5.8,10.34,10.34,0,0,0-1.2-2.6,4.63,4.63,0,0,0-2.1-1.8,6,6,0,0,0-3-.7,5.56,5.56,0,0,0-3,.7,7.41,7.41,0,0,0-2.1,1.8,10.34,10.34,0,0,0-1.2,2.6,9.67,9.67,0,0,0-.4,2.9A14.46,14.46,0,0,0,224.4,358.24Z"/><path class="cls-1" d="M265.7,364.84a10.32,10.32,0,0,1-3.4.7,10.06,10.06,0,0,1-3.9-.8,8.93,8.93,0,0,1-2.9-2.2,8.72,8.72,0,0,1-1.8-3.1,11.48,11.48,0,0,1-.6-3.7,12.9,12.9,0,0,1,.6-4,12,12,0,0,1,1.7-3.4,8.23,8.23,0,0,1,2.9-2.3,8.43,8.43,0,0,1,4-.9,10.32,10.32,0,0,1,3,.4,5.82,5.82,0,0,1,2.5,1.2,7,7,0,0,1,1.8,2,8.28,8.28,0,0,1,1,2.9H268a5.36,5.36,0,0,0-.7-1.9,4,4,0,0,0-1.3-1.3,8.86,8.86,0,0,0-1.7-.8,6.45,6.45,0,0,0-2-.3,5.56,5.56,0,0,0-3,.7,7.56,7.56,0,0,0-2.1,1.9,9.86,9.86,0,0,0-1.6,5.6,9.25,9.25,0,0,0,.4,2.9,7.45,7.45,0,0,0,1.3,2.5,6.84,6.84,0,0,0,2.1,1.7,6.53,6.53,0,0,0,2.9.6,7.63,7.63,0,0,0,2.7-.5,6.9,6.9,0,0,0,2-1.3,6.66,6.66,0,0,0,1.2-2,6.9,6.9,0,0,0,.4-2.5h-6.2v-2.1h8.5V365h-1.6l-.7-2.4A7.73,7.73,0,0,1,265.7,364.84Z"/><path class="cls-1" d="M288.2,345.64V365h-2.6v-19.4Z"/><path class="cls-1" d="M316.8,345.64v2.2H306V354h10v2.2H306v6.7h10.9v2.2H303.4v-19.5Z"/><path class="cls-1" d="M340.5,348.24a5.82,5.82,0,0,0-3.3-.9,8.75,8.75,0,0,0-1.6.2,5.78,5.78,0,0,0-1.4.5,4.74,4.74,0,0,0-1,1,3.77,3.77,0,0,0-.4,1.6,2.46,2.46,0,0,0,.5,1.5,3.39,3.39,0,0,0,1.4.9c.6.2,1.3.4,2,.6s1.5.3,2.3.5l2.3.6a7.5,7.5,0,0,1,2,1,3.64,3.64,0,0,1,1.4,1.6,4.29,4.29,0,0,1,.5,2.4,4.41,4.41,0,0,1-.7,2.6,7.69,7.69,0,0,1-1.8,1.8,6.43,6.43,0,0,1-2.4,1,12.41,12.41,0,0,1-2.7.3,10.55,10.55,0,0,1-3.1-.4,10.34,10.34,0,0,1-2.6-1.2,6.84,6.84,0,0,1-1.7-2.1,7.45,7.45,0,0,1-.6-3.1H332a4.65,4.65,0,0,0,.5,2.1,4.55,4.55,0,0,0,3.1,2.3,7.61,7.61,0,0,0,2.1.3,11,11,0,0,0,1.8-.2,4.42,4.42,0,0,0,1.6-.6,2.91,2.91,0,0,0,1.1-1.1,3.06,3.06,0,0,0,.4-1.7,2.54,2.54,0,0,0-.5-1.6,3.59,3.59,0,0,0-1.4-1,6.64,6.64,0,0,0-2-.6c-.7-.2-1.5-.3-2.3-.5l-2.3-.6a7.22,7.22,0,0,1-2-.9,4.66,4.66,0,0,1-1.4-1.4,3.79,3.79,0,0,1-.5-2.2,4.87,4.87,0,0,1,.6-2.5,5.48,5.48,0,0,1,1.6-1.8,6,6,0,0,1,2.3-1,10.9,10.9,0,0,1,2.6-.3,8.63,8.63,0,0,1,2.8.4,5.08,5.08,0,0,1,2.2,1.1,5.75,5.75,0,0,1,1.5,1.9,6.09,6.09,0,0,1,.6,2.8H342A4.15,4.15,0,0,0,340.5,348.24Z"/><path class="cls-1" d="M39,273.34v4H21.8v45.4H17.1v-45.4H0v-4Z"/><path class="cls-1" d="M67.7,273.34a22,22,0,0,1,5.8.8,15.25,15.25,0,0,1,4.8,2.3,10.53,10.53,0,0,1,3.2,4,13.05,13.05,0,0,1,1.2,5.8,14.14,14.14,0,0,1-2.4,8.2,10.8,10.8,0,0,1-7.2,4.4v.1a10.46,10.46,0,0,1,4,1.3,7.49,7.49,0,0,1,2.6,2.4,9.54,9.54,0,0,1,1.5,3.4,25.25,25.25,0,0,1,.6,4.1c0,.8.1,1.8.1,3a21.86,21.86,0,0,0,.3,3.6,19.72,19.72,0,0,0,.7,3.5,6.48,6.48,0,0,0,1.2,2.5H78.9a6.69,6.69,0,0,1-.7-1.7,7.61,7.61,0,0,1-.3-2.1c-.1-.7-.1-1.4-.2-2.1s-.1-1.3-.1-1.8c-.1-1.8-.2-3.5-.4-5.2a13,13,0,0,0-1.3-4.6,7.76,7.76,0,0,0-2.9-3.3,9,9,0,0,0-5.2-1.1H50v21.9H45.3v-49.4Zm-.3,23.5a11.41,11.41,0,0,0,4.1-.7,10.3,10.3,0,0,0,3.4-1.9,8.6,8.6,0,0,0,2.3-3,8.72,8.72,0,0,0,.9-4,10.08,10.08,0,0,0-2.6-7.2c-1.8-1.8-4.4-2.6-8-2.6H49.9v19.4Z"/><path class="cls-1" d="M97.8,273.34v49.4H93v-49.4Z"/><path class="cls-1" d="M130.4,273.34a29.07,29.07,0,0,1,6,.6,15,15,0,0,1,5,2,10.35,10.35,0,0,1,3.5,3.7,11.32,11.32,0,0,1,1.3,5.8,12.56,12.56,0,0,1-.6,3.8,10.62,10.62,0,0,1-1.8,3.3,12.74,12.74,0,0,1-2.7,2.5,10,10,0,0,1-3.5,1.5v.1a11.48,11.48,0,0,1,7.6,3.9,11.92,11.92,0,0,1,2.8,8.1c0,.8-.1,1.7-.2,2.7a11.14,11.14,0,0,1-.8,3,12.43,12.43,0,0,1-1.8,3.1,11.82,11.82,0,0,1-3.1,2.7,17.79,17.79,0,0,1-4.8,1.9,27.66,27.66,0,0,1-6.9.7H109.5v-49.4Zm0,21.7a14.48,14.48,0,0,0,4.9-.7,9.68,9.68,0,0,0,3.5-1.8,7.89,7.89,0,0,0,2.1-2.7,7.25,7.25,0,0,0,.7-3.3q0-9.3-11.1-9.3H114.3v17.6h16.1Zm0,23.7a20.21,20.21,0,0,0,5-.5,11.15,11.15,0,0,0,4.2-1.6,8.37,8.37,0,0,0,2.8-3.1,10.45,10.45,0,0,0,1-4.9c0-3.2-1.1-5.6-3.4-7.2s-5.5-2.4-9.6-2.4H114.2v19.7Z"/><path class="cls-1" d="M176.8,273.34l19.4,49.4h-5l-6-15.4H162.7l-5.9,15.4h-5l19.8-49.4Zm6.7,30.1L174,278l-9.9,25.3h19.4Z"/><path class="cls-1" d="M206.8,273.34v45.4h27.7v4H202.1v-49.4Z"/><path class="cls-1" d="M227.4,273.34h5.5l16.3,25,16.2-25H271l-19.5,29v20.3h-4.7v-20.2Z"/><path class="cls-1" d="M307.6,273.34v4H290.4v45.4h-4.7v-45.4H268.5v-4Z"/><path class="cls-1" d="M344.9,273.34v4H315.5v17.8H343v4H315.5v19.5h29.7v4H310.8v-49.3Z"/><path class="cls-1" d="M39,273.34v4H21.8v45.4H17.1v-45.4H0v-4Z"/><path class="cls-1" d="M67.7,273.34a22,22,0,0,1,5.8.8,15.25,15.25,0,0,1,4.8,2.3,10.53,10.53,0,0,1,3.2,4,13.05,13.05,0,0,1,1.2,5.8,14.14,14.14,0,0,1-2.4,8.2,10.8,10.8,0,0,1-7.2,4.4v.1a10.46,10.46,0,0,1,4,1.3,7.49,7.49,0,0,1,2.6,2.4,9.54,9.54,0,0,1,1.5,3.4,25.25,25.25,0,0,1,.6,4.1c0,.8.1,1.8.1,3a21.86,21.86,0,0,0,.3,3.6,19.72,19.72,0,0,0,.7,3.5,6.48,6.48,0,0,0,1.2,2.5H78.9a6.69,6.69,0,0,1-.7-1.7,7.61,7.61,0,0,1-.3-2.1c-.1-.7-.1-1.4-.2-2.1s-.1-1.3-.1-1.8c-.1-1.8-.2-3.5-.4-5.2a13,13,0,0,0-1.3-4.6,7.76,7.76,0,0,0-2.9-3.3,9,9,0,0,0-5.2-1.1H50v21.9H45.3v-49.4Zm-.3,23.5a11.41,11.41,0,0,0,4.1-.7,10.3,10.3,0,0,0,3.4-1.9,8.6,8.6,0,0,0,2.3-3,8.72,8.72,0,0,0,.9-4,10.08,10.08,0,0,0-2.6-7.2c-1.8-1.8-4.4-2.6-8-2.6H49.9v19.4Z"/><path class="cls-1" d="M97.8,273.34v49.4H93v-49.4Z"/><path class="cls-1" d="M130.4,273.34a29.07,29.07,0,0,1,6,.6,15,15,0,0,1,5,2,10.35,10.35,0,0,1,3.5,3.7,11.32,11.32,0,0,1,1.3,5.8,12.56,12.56,0,0,1-.6,3.8,10.62,10.62,0,0,1-1.8,3.3,12.74,12.74,0,0,1-2.7,2.5,10,10,0,0,1-3.5,1.5v.1a11.48,11.48,0,0,1,7.6,3.9,11.92,11.92,0,0,1,2.8,8.1c0,.8-.1,1.7-.2,2.7a11.14,11.14,0,0,1-.8,3,12.43,12.43,0,0,1-1.8,3.1,11.82,11.82,0,0,1-3.1,2.7,17.79,17.79,0,0,1-4.8,1.9,27.66,27.66,0,0,1-6.9.7H109.5v-49.4Zm0,21.7a14.48,14.48,0,0,0,4.9-.7,9.68,9.68,0,0,0,3.5-1.8,7.89,7.89,0,0,0,2.1-2.7,7.25,7.25,0,0,0,.7-3.3q0-9.3-11.1-9.3H114.3v17.6h16.1Zm0,23.7a20.21,20.21,0,0,0,5-.5,11.15,11.15,0,0,0,4.2-1.6,8.37,8.37,0,0,0,2.8-3.1,10.45,10.45,0,0,0,1-4.9c0-3.2-1.1-5.6-3.4-7.2s-5.5-2.4-9.6-2.4H114.2v19.7Z"/><path class="cls-1" d="M176.8,273.34l19.4,49.4h-5l-6-15.4H162.7l-5.9,15.4h-5l19.8-49.4Zm6.7,30.1L174,278l-9.9,25.3h19.4Z"/><path class="cls-1" d="M206.8,273.34v45.4h27.7v4H202.1v-49.4Z"/><path class="cls-1" d="M227.4,273.34h5.5l16.3,25,16.2-25H271l-19.5,29v20.3h-4.7v-20.2Z"/><path class="cls-1" d="M307.6,273.34v4H290.4v45.4h-4.7v-45.4H268.5v-4Z"/><path class="cls-1" d="M344.9,273.34v4H315.5v17.8H343v4H315.5v19.5h29.7v4H310.8v-49.3Z"/></g></g></svg>
